<svg width="129" height="75" viewBox="0 0 129 75" fill="none" xmlns="http://www.w3.org/2000/svg">
<path fill-rule="evenodd" clip-rule="evenodd" d="M33.2831 47.5383C26.2395 47.3264 20.0917 51.6597 19.9396 60.1144C19.9522 61.6771 20.1412 63.2334 20.5031 64.7545C20.6536 65.5179 20.9317 66.2511 21.3258 66.924C21.5362 67.3103 21.7715 67.6828 22.0301 68.0394C27.8003 77.1689 44.7334 75.9197 46.3506 64.3697C46.3957 61.927 46.6154 57.6104 45.5899 55.2513C43.8431 50.232 38.1799 47.4435 33.2831 47.5327M92.5065 47.7837C82.5721 48.096 75.8721 60.2371 80.4815 68.4186C83.3553 73.5104 90.5512 76.0089 96.2594 74.6202C100.903 73.6721 104.56 69.6009 105.935 65.6357C106.735 64.0853 106.74 56.8854 105.805 55.5078C103.602 50.6949 98.0062 47.4212 92.5065 47.7837ZM95.8875 53.2436C100.007 54.069 101.894 56.9356 102.238 60.8171C101.376 66.0595 95.4311 67.7103 90.6695 66.5057C86.3926 65.5241 84.595 61.7318 86.5053 57.8613C87.7055 54.1024 92.1008 52.5967 95.8875 53.2436ZM36.4838 55.3851C41.127 56.3277 43.3415 62.7245 40.479 66.4722C38.4504 69.4615 33.3395 69.8575 30.4713 68.0449C22.7007 62.5181 27.6538 53.7344 36.4838 55.3851Z" fill="#3066BE"/>
<path fill-rule="evenodd" clip-rule="evenodd" d="M109.716 39.039L110.347 39.2899L110.668 39.4182L111.434 39.6692L111.806 39.8365C111.941 39.8944 112.08 39.9392 112.223 39.9703C124.62 42.8034 128.638 64.6207 111.688 62.2114C104.261 61.7541 107.557 61.2968 105.439 67.4147C128.322 73.8673 137.118 46.2221 116.934 35.9995C114.661 34.8184 112.301 33.8098 109.873 32.9824C91.3908 28.8163 81.9241 2.38695 63.0301 0M63.0301 0C56.4935 4.58987 65.3798 8.5328 69.1609 10.8305C76.8357 15.9837 83.9921 22.8824 90.9682 29.0896C87.3618 28.3311 51.6869 31.5491 51.5742 27.9742C50.2387 24.7005 50.3514 20.3616 48.0524 17.601C44.3671 14.3831 39.0702 19.0956 41.9835 23.2282C42.9133 25.2136 44.6827 27.1321 45.8435 29.1788C46.6042 29.586 42.778 29.4131 43.026 29.3015C40.8396 28.861 23.0782 28.5208 24.0982 26.3848C23.2811 14.6006 12.1802 14.1433 14.6314 23.2282C20.4693 29.6975 18.5759 25.6653 9.31768 28.1638C-3.75542 31.9729 -0.00817156 51.8047 2.45994 61.5924C4.49979 68.3517 13.5721 68.5971 19.5564 68.2401C21.3596 67.9278 19.686 64.5035 20.0466 62.9197C16.4515 62.2727 11.9943 62.6297 9.59943 59.5735C9.19935 52.7918 3.75598 37.8957 13.3974 35.2689C38.9688 33.9193 60.1675 35.531 86.5955 34.1535C103.968 33.9416 96.7508 35.6531 108.883 38.7595L109.716 39.039M59.5082 61.4975L58.0319 61.7541L56.5611 62.0051L55.7948 62.1333L54.0029 62.3843L52.9604 62.4624L51.0389 62.7133C51.0389 62.7133 49.2413 62.9364 47.827 63.1428C46.221 63.2431 46.3844 63.0089 46.3112 65.3289C45.928 68.6751 47.0099 67.5597 49.3146 68.1621C50.4416 68.3126 53.0393 68.5413 54.1832 68.664C56.4823 68.8815 60.3816 69.4559 62.6807 69.0432C66.118 68.0059 66.5463 62.9085 62.8723 61.4473C62.1567 61.1573 61.4072 61.096 59.4913 61.4473" fill="#3066BE"/>
</svg>
